<svg width="591" height="205" viewBox="0 0 591 205" fill="none" xmlns="http://www.w3.org/2000/svg">
<rect width="591" height="205" rx="20" fill="black"/>
<rect width="205" height="205" fill="black"/>
<circle cx="53.5948" cy="57.6353" r="34.4332" fill="black" stroke="white" stroke-width="6"/>
<circle cx="61.6753" cy="154.605" r="34.4332" fill="black" stroke="white" stroke-width="6"/>
<circle cx="81.8775" cy="37.4332" r="34.4332" fill="black" stroke="white" stroke-width="6"/>
<circle cx="118.241" cy="37.4332" r="34.4332" fill="black" stroke="white" stroke-width="6"/>
<circle cx="150.564" cy="57.6353" r="34.4332" fill="black" stroke="white" stroke-width="6"/>
<circle cx="166.726" cy="98.0391" r="34.4332" fill="black" stroke="white" stroke-width="6"/>
<circle cx="158.645" cy="130.362" r="34.4332" fill="black" stroke="white" stroke-width="6"/>
<circle cx="134.403" cy="158.645" r="34.4332" fill="black" stroke="white" stroke-width="6"/>
<circle cx="93.9986" cy="166.726" r="34.4332" fill="black" stroke="white" stroke-width="6"/>
<circle cx="37.4332" cy="98.0391" r="34.4332" fill="black" stroke="white" stroke-width="6"/>
<circle cx="49.5542" cy="134.403" r="34.4332" fill="black" stroke="white" stroke-width="6"/>
<circle cx="89.9585" cy="118.241" r="34.4332" fill="black" stroke="white" stroke-width="6"/>
<circle cx="85.918" cy="73.7969" r="34.4332" fill="black" stroke="white" stroke-width="6"/>
<circle cx="126.322" cy="93.9988" r="34.4332" fill="black" stroke="white" stroke-width="6"/>
<path d="M311.584 149L285.728 108.936H283.168L248.096 59.016H268.704L294.432 96.776H296.992L331.936 149H311.584ZM246.56 149L280.224 100.872L293.024 109.448L266.272 149H246.56ZM297.888 106.248L285.088 97.672L310.688 59.016H330.4L297.888 106.248ZM344.526 149V59.016H361.934V149H344.526ZM357.326 149V133.64H407.118V149H357.326ZM357.326 110.472V95.624H402.638V110.472H357.326ZM357.326 74.376V59.016H406.478V74.376H357.326ZM464.573 150.408C458.002 150.408 451.858 149.213 446.141 146.824C440.509 144.435 435.56 141.149 431.293 136.968C427.112 132.701 423.826 127.752 421.437 122.12C419.048 116.403 417.853 110.301 417.853 103.816C417.853 97.3307 419.005 91.3147 421.309 85.768C423.698 80.136 426.984 75.2293 431.165 71.048C435.432 66.7813 440.381 63.496 446.013 61.192C451.645 58.8027 457.746 57.608 464.317 57.608C470.973 57.608 477.117 58.8027 482.749 61.192C488.381 63.496 493.288 66.7813 497.469 71.048C501.736 75.2293 505.064 80.136 507.453 85.768C509.842 91.4 511.037 97.4587 511.037 103.944C511.037 110.429 509.842 116.488 507.453 122.12C505.064 127.752 501.736 132.701 497.469 136.968C493.288 141.149 488.381 144.435 482.749 146.824C477.202 149.213 471.144 150.408 464.573 150.408ZM464.317 134.152C470.12 134.152 475.154 132.872 479.421 130.312C483.688 127.752 487.016 124.211 489.405 119.688C491.88 115.165 493.117 109.875 493.117 103.816C493.117 99.3787 492.434 95.3253 491.069 91.656C489.704 87.9867 487.741 84.8293 485.181 82.184C482.621 79.4533 479.592 77.3627 476.093 75.912C472.594 74.4613 468.669 73.736 464.317 73.736C458.685 73.736 453.693 75.016 449.341 77.576C445.074 80.0507 441.704 83.5493 439.229 88.072C436.84 92.5947 435.645 97.8427 435.645 103.816C435.645 108.339 436.328 112.477 437.693 116.232C439.144 119.987 441.106 123.187 443.581 125.832C446.141 128.477 449.17 130.525 452.669 131.976C456.253 133.427 460.136 134.152 464.317 134.152ZM527.396 149V59.016H544.804V149H527.396ZM540.196 149V133.512H586.02V149H540.196Z" fill="white"/>
</svg>
