<svg width="441" height="182" viewBox="0 0 441 182" fill="none" xmlns="http://www.w3.org/2000/svg">
<g clip-path="url(#clip0_11462_5417)">
<path d="M232.455 110.449L213.236 80.7508H211.333L185.263 43.7468H200.582L219.706 71.737H221.609L247.583 110.449H232.455ZM184.122 110.449L209.145 74.7733L218.659 81.1304L198.774 110.449H184.122ZM222.275 78.7583L212.76 72.4012L231.789 43.7468H246.441L222.275 78.7583ZM256.942 110.449V43.7468H269.881V110.449H256.942ZM266.456 110.449V99.0631H303.467V110.449H266.456ZM266.456 81.8894V70.8831H300.137V81.8894H266.456ZM266.456 55.1327V43.7468H302.992V55.1327H266.456ZM346.175 111.493C341.29 111.493 336.723 110.607 332.474 108.836C328.287 107.065 324.609 104.629 321.437 101.53C318.329 98.367 315.887 94.6985 314.111 90.5237C312.335 86.2859 311.447 81.7627 311.447 76.9556C311.447 72.1482 312.303 67.6888 314.016 63.5772C315.792 59.4024 318.234 55.7652 321.342 52.6657C324.514 49.503 328.192 47.0677 332.379 45.3598C336.565 43.5887 341.1 42.7031 345.984 42.7031C350.932 42.7031 355.499 43.5887 359.685 45.3598C363.872 47.0677 367.519 49.503 370.627 52.6657C373.799 55.7652 376.272 59.4024 378.048 63.5772C379.824 67.752 380.712 72.2431 380.712 77.0504C380.712 81.8575 379.824 86.3489 378.048 90.5237C376.272 94.6985 373.799 98.367 370.627 101.53C367.519 104.629 363.872 107.065 359.685 108.836C355.562 110.607 351.059 111.493 346.175 111.493ZM345.984 99.4426C350.298 99.4426 354.04 98.4938 357.211 96.5961C360.383 94.6985 362.857 92.0737 364.633 88.7209C366.473 85.3682 367.392 81.4469 367.392 76.9556C367.392 73.6663 366.884 70.6617 365.87 67.9418C364.855 65.2218 363.396 62.8814 361.493 60.9205C359.59 58.8963 357.339 57.3466 354.738 56.2713C352.137 55.1959 349.219 54.6583 345.984 54.6583C341.798 54.6583 338.087 55.6071 334.852 57.5047C331.681 59.3391 329.176 61.9325 327.336 65.2851C325.56 68.6376 324.672 72.5277 324.672 76.9556C324.672 80.3083 325.18 83.3757 326.194 86.1591C327.273 88.9426 328.731 91.3146 330.571 93.2753C332.474 95.2359 334.725 96.754 337.326 97.8296C339.99 98.9052 342.877 99.4426 345.984 99.4426ZM392.872 110.449V43.7468H405.812V110.449H392.872ZM402.387 110.449V98.9682H436.449V110.449H402.387Z" fill="white"/>
<path d="M59.0211 0H64.0073L67.8063 0.71231L73.7422 3.08668L75.6417 3.32412L78.7284 2.13693L82.5274 0.71231L85.8515 0H91.3126L95.349 0.949747L101.997 3.56155L104.372 5.22361L106.509 6.64823L108.883 9.0226L110.545 10.9221L112.444 13.2965L113.394 15.196L117.431 15.6708L122.654 16.858L125.503 18.2826L127.166 19.7073L130.015 21.1319L131.202 22.5565L132.864 23.7437L134.289 25.8806L135.951 27.5427L139.037 33.9535L139.987 36.5653L140.462 40.6017V45.3504L140.225 50.0992L142.599 51.5238L144.498 53.6607L146.398 55.3228L147.823 57.6971L149.485 60.309L151.622 66.7197L152.334 70.0439V75.9798L151.384 80.2536L150.197 83.5778L149.01 86.6644L147.585 88.5639L146.16 91.4132L146.635 94.4999V99.0112L145.686 103.76L144.498 106.847L143.311 109.696L142.599 111.358L141.174 113.02L139.987 115.157L136.9 118.006L133.576 120.38H133.101L132.864 121.093L130.727 122.043L128.353 122.992H127.878L127.166 125.367L125.741 130.353L124.079 132.49L123.129 134.627L120.517 137.238L118.855 139.138L117.431 140.088L116.006 141.512L113.157 142.7L108.171 145.074L106.034 145.549L103.184 145.786H97.7233L93.9244 145.311L89.6505 143.649L89.1756 145.074L85.8515 146.973L84.6643 148.161L78.7284 150.535L75.1668 151.722L73.5048 151.96H68.0437L64.2448 151.247L61.6329 150.298L58.3088 148.873L55.9345 147.923L54.035 146.261L52.6104 145.311L50.236 142.7L49.2862 142.462H44.3001L39.5513 141.987L36.4646 141.037L33.6154 139.613L31.4785 138.663L28.3918 135.814L25.78 133.677L23.6431 130.59L22.2184 128.691L20.7938 124.654L18.8943 120.855L16.7574 118.244L15.3328 117.056L13.6707 114.445L11.5338 110.171L10.1092 103.285L9.87172 99.2486L10.3466 94.025L7.49735 91.4132L5.36042 88.3265L1.79887 81.2034L1.08656 78.5916L0.849121 76.4547V69.569L1.32399 66.4823L2.27374 63.8705L5.36042 57.4597L7.02248 55.5602L8.20966 53.6607L9.63428 52.711L11.7712 50.8115L13.1958 50.0992H13.6707L12.9584 46.3002L12.721 42.9761L13.1958 38.4648L14.383 33.0037L15.8076 30.1545L17.4697 27.7801L19.1318 25.1683L21.981 22.5565L23.8805 20.657L27.6795 18.5201L29.3415 17.3329L33.6154 16.1457L36.7021 15.6708L38.6016 11.8718L39.5513 10.6847L41.2134 9.49747L42.8754 7.1231L45.4872 5.46105L48.0991 3.56155L52.8478 1.66206L56.4093 0.474874L59.0211 0Z" fill="url(#paint0_linear_11462_5417)"/>
<path d="M91.3124 46.7754H97.9606L101.997 47.4877L106.033 49.6246L109.12 51.5241L109.832 52.7113L112.207 54.1359L113.631 56.7477L115.293 58.6472L116.481 60.7842L117.668 66.4826L117.905 67.9073V72.1811L116.718 78.1171L116.006 80.254L113.869 83.1032L111.494 86.4273L109.12 88.3268L106.271 90.4638L105.559 91.1761L97.7232 93.313H91.3124L84.4267 91.4135L82.2898 89.9889L80.6277 88.5643L78.9657 87.6145L76.1164 84.2904L74.4544 81.6786L73.0297 79.5417L72.08 76.9299L71.6051 74.0806L71.3677 71.2314V68.857L71.8425 64.1083L72.5549 61.0216L74.2169 58.4098L75.1667 57.2226L75.879 56.0354L76.3538 54.8482L78.7282 52.9487L79.678 51.5241L83.2395 49.6246L86.3262 47.7251L89.4129 47.0128L91.3124 46.7754Z" fill="#222027"/>
<path d="M63.0574 31.5781H65.9067L68.9934 32.053L73.5047 33.4776L75.6416 34.1899L78.016 35.852L80.6278 37.7515L82.5273 39.8884L84.6642 42.9751L84.9016 44.1623L82.2898 45.112L80.1529 46.5366L77.3036 48.1987L75.1667 50.8105L73.5047 51.7603L71.3677 55.0844L69.9431 57.2213L67.5687 64.5818L66.8564 69.0931L67.0939 73.367L67.8062 76.4537V77.8783L66.3816 78.1157H62.5826L56.6466 77.166L54.9846 76.4537L51.6605 74.5542L49.5235 73.1296L47.1492 70.5178L45.962 69.3306L42.8753 63.8695L41.9256 61.7326L41.4507 58.8834V51.0479L42.163 47.4864L43.3502 45.112L44.7748 43.2125L45.962 40.6007H46.4369L46.6743 39.8884L47.8615 38.7012L49.0487 37.0392L51.6605 35.6146L53.56 34.1899L56.1718 33.2402L60.2082 32.053L63.0574 31.5781Z" fill="#222027"/>
<path d="M86.8011 107.559L87.9883 108.033L89.1755 109.458L90.1252 111.358L91.5498 113.257L92.737 115.869L93.6868 120.618L93.9242 122.28V125.129L93.2119 130.115L92.4996 132.964L91.5498 134.864L90.1252 136.526L88.938 138.9L86.0888 141.512L83.0021 143.649L81.8149 144.836L80.1529 145.548L74.9293 146.973L73.2672 147.211H67.8062L65.1943 146.736L60.2082 145.311L58.3087 143.886L56.8841 142.699L55.222 141.749L53.5599 139.85L52.3728 138.9L50.7107 136.051L49.2861 134.152L48.3363 131.777L47.624 127.266V125.604L49.9984 124.654L52.1353 123.704L53.3225 122.517L54.9846 121.567L57.8338 118.956L60.683 115.394L61.6328 115.157L63.5323 115.394H71.6051L75.6416 114.682L78.4908 113.495L80.3903 112.307L83.7144 110.645L85.6139 108.746L86.8011 107.559Z" fill="#222027"/>
<path d="M34.0902 76.9297H40.7384L41.6882 77.1671L41.4507 79.5415L40.2636 84.2902L40.0261 86.1897V90.701L40.9759 94.7374L42.4005 99.9611L44.0625 102.098L45.962 105.185L48.3364 107.796L48.8113 108.034V108.509L49.761 108.984L51.6605 110.646L55.4595 112.783L56.1718 113.495L55.9344 114.682L53.0851 117.769L47.3867 121.568L43.8251 122.518L40.501 123.23H35.2774L29.3415 122.043L25.5425 120.143L24.5927 119.431V118.956L23.4055 118.481L21.9809 117.531L20.7937 115.869L18.8942 114.682L16.9947 110.883L15.0953 107.322L14.3829 104.71L14.1455 103.285V96.8744L14.6204 94.0251L15.5701 91.6508L17.2322 88.8015L18.6568 85.9523L20.0814 84.2902L21.506 83.103L22.6932 81.6784L25.5425 80.0164L28.6292 78.1169L30.5286 77.4046L34.0902 76.9297Z" fill="#222027"/>
<path d="M105.796 95.2129L107.458 95.4503L110.308 96.8749L114.819 99.2493L117.906 102.099L119.568 104.235L121.942 108.034L122.892 109.934L123.604 113.496L123.842 116.345V119.431L123.367 124.18L122.179 127.742L120.28 130.354L118.855 132.728L116.006 135.815L113.869 137.239L112.207 138.664L106.271 140.801L102.472 141.513H98.4358L95.5865 141.038L93.4496 140.326L93.687 139.376L95.1117 137.002L97.486 130.354L98.1983 127.267V120.856L97.486 117.532L96.0614 113.733L94.8742 110.409L92.025 106.135V105.66L90.8378 105.185L90.1255 104.235L91.7875 101.624L92.7373 99.7242L93.4496 98.0621L93.9245 97.8247L99.1481 97.5873L102.947 96.4001L105.796 95.2129Z" fill="#222027"/>
<path d="M110.783 19.9453H114.819L118.855 20.4202L122.18 21.6074L125.978 23.7443L128.59 26.1187L130.015 27.3059L131.677 29.4428L132.864 31.3423L134.051 34.1915L135.239 36.8033L135.951 39.6526L136.188 41.3146V44.8762L135.713 47.2505L133.814 47.0131L129.303 45.8259L125.978 45.3511H123.367L119.805 45.8259L113.157 47.488L111.97 48.2003L107.696 45.8259L105.321 44.4013L101.522 43.4516L98.4358 42.7392L93.6871 42.5018L89.1758 42.7392L89.4132 37.9905L90.1255 35.8536L93.4496 29.2053H93.9245L94.3994 28.2556L97.0112 25.4064L99.8604 23.2694L102.472 21.8448L104.609 20.8951L107.696 20.1827L110.783 19.9453Z" fill="#222027"/>
<path d="M46.912 76.9297L47.8617 77.1671L51.8981 79.5415L52.6104 80.2538L55.6971 81.2036L59.7336 82.1533L63.0577 82.6282H66.6192L69.231 82.1533L71.368 84.5277L72.5551 87.1395L75.4044 89.7513L76.829 91.4133L78.2536 92.3631L79.2034 93.0754V93.5503L81.3403 94.2626L85.1393 95.9246L87.2762 96.8744L88.9383 97.5867L88.4634 98.7739L87.0388 100.911L86.089 101.386L85.6142 102.81L84.6644 104.472L82.7649 105.66L81.5777 107.084L77.7788 108.984L74.2172 110.646L71.1305 111.358H63.77L60.9207 110.646L58.0715 109.221L53.5602 106.847L51.6607 104.947L49.7612 103.285L48.0991 100.911L46.912 98.7739L45.7248 96.8744L44.5376 90.9385V85.4774L45.7248 79.3041L46.912 76.9297Z" fill="#222027"/>
<path d="M27.2047 49.8613H29.3416L35.0401 50.5736L37.177 51.2859V57.2219L38.1268 63.3952L39.0765 66.2445L41.2134 69.5686L42.6381 71.943L42.8755 72.6553L40.5011 72.4178H34.8027L31.4785 73.1301L27.2047 74.5548L25.0677 75.0296L23.6431 76.2168L20.319 78.3537L18.6569 79.7784L16.9949 81.6779L14.858 83.8148L12.4836 88.3261L11.5338 88.801L9.15947 86.1892L7.25998 82.865L5.59792 77.8789L5.12305 75.2671V70.7558L6.07279 66.7193L7.97229 61.0209L10.3467 58.6465L12.0087 56.5096L14.6205 53.8978L17.4698 52.4731L19.3693 51.2859L23.6431 50.3362L27.2047 49.8613Z" fill="#222027"/>
<path d="M86.564 4.74805H90.6004L94.6369 5.46036L98.9107 6.64754L103.659 10.2091L105.796 11.8712L107.696 14.483L108.171 15.1953V15.9076L102.472 17.0948L100.098 18.2819L97.961 19.944L95.824 20.8938L94.6369 22.0809L92.9748 23.5056L90.8379 26.1174L89.4133 27.7794L88.2261 30.1538L87.5138 31.341L85.8517 34.6651L85.6143 36.0897H84.902L83.2399 34.4276L79.9158 32.0533L77.7788 30.3912L73.0301 28.7292L71.3681 28.0169L68.9937 27.542L65.6696 27.3045L65.4321 27.0671V23.5056L66.1444 20.6563L68.9937 15.4327L69.9434 13.2958L71.3681 12.346L73.0301 10.2091L75.6419 8.78447L77.304 7.35985L79.4409 6.17267L84.6645 4.98548L86.564 4.74805Z" fill="#222027"/>
<path d="M122.417 74.0801L125.978 74.7924L129.065 75.9796L132.152 77.8791L136.188 81.6781L138.562 84.5273L139.987 86.9017L140.937 90.2258L141.886 94.4996V99.4858L140.699 104.947L139.749 107.559L137.375 110.883L135.001 113.969L132.152 116.106L129.065 118.243L128.59 118.006L127.64 113.02L125.978 107.084L125.266 105.184L123.841 103.285L122.891 101.385L120.755 99.0109L118.855 97.3489L116.481 94.9745L113.631 93.7873L111.732 92.3627V91.8878L113.157 90.7007L114.819 88.8012L116.006 87.8514L117.905 84.5273L118.855 83.5776L121.229 77.1668L122.179 74.3175L122.417 74.0801Z" fill="#222027"/>
<path d="M124.079 49.8613L129.54 50.3362L132.864 51.0485L136.188 52.7106L139.512 54.6101L141.649 57.2219L142.836 58.1716L145.448 62.4455L146.873 65.0573L147.585 69.0937L147.823 71.7055V74.0799L147.11 80.0158L146.16 82.6276L144.498 85.2394L143.549 85.002L141.887 81.9153L139.037 78.1163L136.663 76.2168L136.188 75.2671L135.001 74.7922L133.101 73.605L130.965 72.1804L129.302 71.2306L123.129 69.806L122.654 69.3311L121.704 64.1075L120.28 60.3085L118.855 56.747L117.193 53.8978L115.769 51.9983V51.2859L116.956 50.8111L121.23 50.0988L124.079 49.8613Z" fill="#222027"/>
<path d="M59.7332 4.74805H63.2948L67.3312 5.46036L70.4179 6.17267L69.943 7.35985L68.2809 9.73422L66.8563 10.4465L64.482 14.7204L62.5825 17.8071L61.8701 20.4189L61.1578 26.3548L60.9204 27.3045L57.3588 28.2543L51.1855 30.6287L49.0486 32.0533L47.3865 33.4779L45.9619 34.4277L45.0121 35.8523L43.3501 37.0395H42.8752V37.5143H42.4003L41.9255 39.6513L40.9757 38.7015L39.0762 34.9025L38.3639 33.003L38.1265 31.5784V24.2179L38.8388 21.8435L40.9757 17.0948L42.4003 14.2455L45.2496 11.3963L46.1993 10.2091L48.3362 8.78447L49.5234 7.83473L53.3224 5.93523L57.8337 4.98548L59.7332 4.74805Z" fill="#222027"/>
<path d="M33.6154 20.6562H34.8026L34.5652 23.5055L34.3277 25.405V30.866L35.2775 36.5645L36.2272 39.4138L37.4144 41.3133L38.3642 43.6876L38.1267 46.5369L37.4144 46.7743L31.9534 45.5871L29.8164 45.3497H26.9672L22.9308 46.062L18.4195 47.2492H17.7072L17.4697 46.2994V40.1261L17.9446 36.3271L18.6569 34.4276L20.7938 30.6286L22.6933 27.7794L24.8303 25.8799L26.0175 24.4552L29.3416 22.5557L32.6657 20.8937L33.6154 20.6562Z" fill="#222027"/>
<path d="M26.0172 125.129L27.2044 125.366L30.0536 126.554L33.6152 127.503L34.8024 127.741H40.5009L42.8752 127.503L46.1994 137.476L46.4368 138.663L43.5875 138.425L41.2132 137.95L38.3639 137.001L36.227 135.814L34.0901 134.864L32.1906 133.439L30.0536 131.54L28.8665 130.59L27.4418 128.216V127.741H26.967L25.7798 125.366L26.0172 125.129Z" fill="#222027"/>
</g>
<g clip-path="url(#clip1_11462_5417)">
<path fill-rule="evenodd" clip-rule="evenodd" d="M357.178 163.084C352.81 163.084 348.981 159.418 348.981 153.684V153.59C348.981 147.715 352.674 144.238 357.178 144.238C361.502 144.238 365.6 147.997 365.6 153.59V153.684C365.6 159.277 361.502 163.084 357.178 163.084ZM376.611 152.272C377.067 147.473 380.162 143.911 384.259 143.911C388.948 143.911 391.406 147.806 391.771 152.272H376.611ZM384.943 166.74C389.404 166.74 392.272 164.888 394.64 162.132L392.454 160.09C390.543 162.18 388.267 163.557 385.034 163.557C380.846 163.557 377.249 160.565 376.749 155.245H395.414C395.459 154.817 395.459 154.532 395.459 154.057C395.459 146.884 391.453 141.088 384.488 141.088C377.978 141.088 373.198 146.789 373.198 153.867V153.962C373.198 161.562 378.479 166.74 384.943 166.74ZM405.694 166.145H408.792L419.045 141.371H415.263L407.288 161.77L399.359 141.371H395.485L405.694 166.145ZM428.924 166.416C433.614 166.416 437.302 163.708 437.302 159.052V159.023C437.302 154.554 433.341 153.064 429.657 151.91C426.479 150.901 423.532 149.988 423.532 147.633V147.562C423.532 145.547 425.283 144.047 428.023 144.047C430.269 144.047 432.739 144.937 434.895 146.39L436.467 143.672C434.086 142.032 430.943 141.001 428.113 141.001C423.532 141.001 420.208 143.766 420.208 147.937V148.032C420.208 152.583 424.339 153.924 428.057 155.026C431.179 155.935 433.978 156.894 433.978 159.384V159.432C433.978 161.808 431.929 163.328 429.107 163.328C426.329 163.328 423.506 162.187 420.957 160.192L419.182 162.805C421.822 165.038 425.555 166.416 428.924 166.416ZM356.516 166.332C360.874 166.332 363.674 163.815 365.6 160.87V165.65H368.924V134.93H365.6V145.953C363.765 143.198 360.92 140.728 356.516 140.728C350.826 140.728 345.182 145.479 345.182 153.506V153.602C345.182 161.677 350.826 166.332 356.516 166.332Z" fill="url(#paint1_linear_11462_5417)"/>
<path fill-rule="evenodd" clip-rule="evenodd" d="M288.126 166.525C286.305 166.525 284.613 166.208 283.05 165.575C281.488 164.941 280.137 164.038 278.998 162.867C277.86 161.695 276.973 160.309 276.336 158.71C275.698 157.111 275.38 155.33 275.38 153.366V153.271C275.38 151.466 275.676 149.756 276.267 148.141C276.859 146.526 277.686 145.116 278.748 143.913C279.81 142.709 281.078 141.759 282.55 141.062C284.022 140.366 285.653 140.018 287.444 140.018C289.477 140.018 291.237 140.397 292.724 141.158C294.212 141.917 295.448 142.939 296.435 144.222C297.421 145.504 298.149 146.977 298.62 148.639C299.09 150.302 299.326 152.036 299.326 153.841C299.326 154.126 299.318 154.427 299.303 154.744C299.287 155.06 299.265 155.393 299.234 155.741H282.254C282.588 157.388 283.278 158.631 284.325 159.47C285.372 160.309 286.67 160.729 288.218 160.729C289.371 160.729 290.402 160.523 291.313 160.111C292.224 159.7 293.165 159.035 294.136 158.116L298.096 161.774C296.943 163.262 295.546 164.427 293.908 165.266C292.269 166.105 290.342 166.525 288.126 166.525ZM292.37 151.282C292.157 149.667 291.611 148.361 290.73 147.363C289.85 146.365 288.682 145.867 287.225 145.867C285.768 145.867 284.592 146.357 283.697 147.34C282.802 148.321 282.217 149.635 281.944 151.282H292.37ZM301.496 140.381H308.619V145.41C309.3 143.702 310.233 142.337 311.418 141.313C312.603 140.288 314.203 139.822 316.216 139.916V147.318H315.861C313.61 147.318 311.84 148.032 310.551 149.46C309.263 150.887 308.619 153.106 308.619 156.117V165.651H301.496V140.381ZM330.416 166.605C328.521 166.605 326.764 166.262 325.143 165.577C323.524 164.891 322.125 163.95 320.948 162.754C319.772 161.558 318.847 160.155 318.175 158.544C317.502 156.934 317.166 155.203 317.166 153.354V153.258C317.166 151.408 317.502 149.678 318.175 148.068C318.847 146.457 319.779 145.045 320.971 143.834C322.163 142.622 323.569 141.664 325.19 140.963C326.809 140.261 328.582 139.911 330.508 139.911C332.403 139.911 334.16 140.253 335.78 140.939C337.4 141.625 338.799 142.566 339.975 143.762C341.152 144.958 342.076 146.361 342.748 147.971C343.421 149.582 343.757 151.313 343.757 153.162V153.258C343.757 155.108 343.421 156.838 342.748 158.448C342.076 160.059 341.144 161.47 339.952 162.682C338.76 163.894 337.354 164.852 335.734 165.553C334.115 166.255 332.342 166.605 330.416 166.605ZM330.27 160.329C331.278 160.329 332.17 160.146 332.949 159.78C333.727 159.413 334.391 158.912 334.94 158.275C335.49 157.638 335.91 156.897 336.199 156.053C336.49 155.209 336.635 154.309 336.635 153.353V153.258C336.635 152.303 336.482 151.402 336.177 150.558C335.872 149.714 335.429 148.966 334.849 148.313C334.269 147.66 333.582 147.143 332.788 146.76C331.995 146.378 331.125 146.187 330.178 146.187C329.171 146.187 328.278 146.37 327.5 146.736C326.721 147.102 326.058 147.604 325.508 148.241C324.959 148.878 324.539 149.619 324.248 150.463C323.959 151.307 323.814 152.207 323.814 153.163V153.258C323.814 154.213 323.966 155.114 324.272 155.958C324.577 156.801 325.02 157.55 325.6 158.203C326.18 158.856 326.859 159.373 327.637 159.756C328.416 160.138 329.293 160.329 330.27 160.329ZM257.336 134.931V144.327C257.736 143.781 258.175 143.266 258.653 142.767C259.131 142.276 259.662 141.841 260.248 141.453C260.833 141.073 261.48 140.772 262.189 140.542C262.898 140.32 263.699 140.21 264.592 140.21C267.274 140.21 269.346 141.049 270.81 142.727C272.273 144.406 273.005 146.718 273.005 149.663V166.147H265.883V151.975C265.883 150.273 265.517 148.982 264.786 148.119C264.055 147.248 263.019 146.813 261.678 146.813C260.338 146.813 259.278 147.248 258.501 148.119C257.724 148.982 257.336 150.273 257.336 151.975V165.651H250.213V134.931H257.336Z" fill="white"/>
</g>
<path d="M185.965 132.951H191.02V145.472C192.734 142.985 195.504 141.636 198.581 141.636C205.13 141.636 209.306 147.159 209.306 153.187C209.306 159.216 205.13 164.949 198.317 164.949C195.196 164.949 192.471 163.642 190.8 161.071L190.58 164.317H185.965V132.951ZM197.526 146.02C193.35 146.02 190.932 149.477 190.932 153.272C190.932 156.939 193.35 160.565 197.526 160.565C201.702 160.565 204.119 157.024 204.119 153.272C204.119 149.519 201.789 146.02 197.526 146.02ZM210.063 142.268H215.601L221.799 158.752L227.426 142.268H232.789L223.03 166.973C221.624 170.472 219.426 173.086 215.25 173.086C213.887 173.086 212.612 172.833 211.381 172.201L212.48 168.364C212.788 168.491 213.184 168.617 213.579 168.744C213.975 168.828 214.371 168.87 214.766 168.87C216.876 168.87 217.975 167.605 218.722 165.835L219.426 164.106L210.063 142.268Z" fill="white"/>
<defs>
<linearGradient id="paint0_linear_11462_5417" x1="0.849121" y1="70.1352" x2="152.358" y2="70.8523" gradientUnits="userSpaceOnUse">
<stop stop-color="#F926E1"/>
<stop offset="1" stop-color="#2AB5FB"/>
</linearGradient>
<linearGradient id="paint1_linear_11462_5417" x1="345.182" y1="152.058" x2="437.302" y2="150.792" gradientUnits="userSpaceOnUse">
<stop stop-color="#F926E1"/>
<stop offset="1" stop-color="#2AB5FB"/>
</linearGradient>
<clipPath id="clip0_11462_5417">
<rect width="439.301" height="151.96" fill="white" transform="translate(0.849121)"/>
</clipPath>
<clipPath id="clip1_11462_5417">
<rect width="189.525" height="62.4318" fill="white" transform="translate(250.626 119.568)"/>
</clipPath>
</defs>
</svg>
