<svg width="415" height="172" viewBox="0 0 415 172" fill="none" xmlns="http://www.w3.org/2000/svg">
<g clip-path="url(#clip0_11483_10710)">
<path d="M218.794 104.338L200.637 76.2827H198.84L174.212 41.3258H188.683L206.749 67.7676H208.547L233.085 104.338H218.794ZM173.134 104.338L196.773 70.6359L205.761 76.6413L186.976 104.338H173.134ZM209.176 74.4004L200.188 68.395L218.164 41.3258H232.006L209.176 74.4004ZM241.925 104.338V41.3258H254.149V104.338H241.925ZM250.913 104.338V93.5819H285.877V104.338H250.913ZM250.913 77.3583V66.9609H282.731V77.3583H250.913ZM250.913 52.0818V41.3258H285.428V52.0818H250.913ZM326.222 105.324C321.608 105.324 317.294 104.487 313.279 102.814C309.324 101.141 305.849 98.8402 302.853 95.9124C299.917 92.9244 297.61 89.4588 295.932 85.515C294.255 81.5116 293.415 77.2386 293.415 72.6974C293.415 68.156 294.224 63.9433 295.842 60.0591C297.52 56.1153 299.827 52.6793 302.763 49.7513C305.759 46.7635 309.234 44.463 313.189 42.8496C317.144 41.1764 321.428 40.3398 326.042 40.3398C330.716 40.3398 335.03 41.1764 338.985 42.8496C342.94 44.463 346.386 46.7635 349.322 49.7513C352.318 52.6793 354.655 56.1153 356.332 60.0591C358.01 64.003 358.849 68.2457 358.849 72.787C358.849 77.3282 358.01 81.5711 356.332 85.515C354.655 89.4588 352.318 92.9244 349.322 95.9124C346.386 98.8402 342.94 101.141 338.985 102.814C335.09 104.487 330.836 105.324 326.222 105.324ZM326.042 93.9405C330.117 93.9405 333.652 93.0441 336.648 91.2515C339.645 89.4588 341.981 86.9792 343.659 83.8119C345.397 80.6447 346.266 76.9403 346.266 72.6974C346.266 69.5902 345.786 66.7517 344.827 64.1823C343.869 61.6128 342.491 59.4018 340.693 57.5494C338.895 55.6372 336.768 54.1733 334.311 53.1574C331.854 52.1415 329.098 51.6336 326.042 51.6336C322.088 51.6336 318.582 52.5299 315.526 54.3226C312.53 56.0555 310.164 58.5055 308.426 61.6725C306.748 64.8396 305.909 68.5146 305.909 72.6974C305.909 75.8647 306.388 78.7624 307.347 81.3918C308.366 84.0213 309.744 86.2621 311.482 88.1143C313.279 89.9665 315.406 91.4006 317.863 92.4167C320.38 93.4328 323.106 93.9405 326.042 93.9405ZM370.336 104.338V41.3258H382.56V104.338H370.336ZM379.324 104.338V93.4923H411.502V104.338H379.324Z" fill="#0D0D0D"/>
<path d="M54.9539 0H59.6643L63.2531 0.672905L68.8606 2.91592L70.655 3.14022L73.571 2.01872L77.1598 0.672905L80.3 0H85.459L89.2721 0.897207L95.5525 3.36453L97.7956 4.93464L99.8143 6.28045L102.057 8.52347L103.627 10.3179L105.422 12.5609L106.319 14.3553L110.132 14.8039L115.067 15.9254L117.758 17.2712L119.329 18.617L122.02 19.9629L123.142 21.3087L124.712 22.4302L126.058 24.4489L127.628 26.019L130.544 32.0751L131.441 34.5425L131.889 38.3556V42.8416L131.665 47.3277L133.908 48.6735L135.703 50.6922L137.497 52.2623L138.843 54.5053L140.413 56.9726L142.432 63.0288L143.105 66.169V71.7766L142.207 75.814L141.086 78.9542L139.964 81.8701L138.618 83.6645L137.273 86.3562L137.721 89.2721V93.5338L136.824 98.0199L135.703 100.936L134.581 103.627L133.908 105.198L132.562 106.768L131.441 108.786L128.525 111.478L125.385 113.721H124.936L124.712 114.394L122.693 115.291L120.45 116.188H120.001L119.329 118.431L117.983 123.142L116.413 125.16L115.515 127.179L113.048 129.646L111.478 131.441L110.132 132.338L108.786 133.684L106.095 134.805L101.384 137.048L99.3657 137.497L96.6741 137.721H91.5151L87.9263 137.273L83.8889 135.703L83.4402 137.048L80.3 138.843L79.1785 139.964L73.571 142.207L70.2064 143.329L68.6363 143.553H63.4774L59.8886 142.88L57.4212 141.983L54.281 140.637L52.038 139.74L50.2436 138.17L48.8978 137.273L46.6548 134.805L45.7576 134.581H41.0472L36.5612 134.132L33.6453 133.235L30.9536 131.889L28.9349 130.992L26.019 128.301L23.5517 126.282L21.533 123.366L20.1872 121.572L18.8413 117.758L17.0469 114.17L15.0282 111.702L13.6824 110.581L12.1123 108.113L10.0936 104.076L8.74777 97.5713L8.52347 93.7581L8.97207 88.8235L6.28045 86.3562L4.26173 83.4402L0.897207 76.7112L0.224302 74.2439L0 72.2252V65.7204L0.448603 62.8045L1.34581 60.3372L4.26173 54.281L5.83185 52.4866L6.95335 50.6922L8.29916 49.795L10.3179 48.0006L11.6637 47.3277H12.1123L11.4394 43.7388L11.2151 40.5986L11.6637 36.3369L12.7852 31.1779L14.131 28.4863L15.7011 26.2433L17.2712 23.776L19.9629 21.3087L21.7573 19.5143L25.3461 17.4955L26.9162 16.374L30.9536 15.2525L33.8696 14.8039L35.664 11.2151L36.5612 10.0936L38.1313 8.97207L39.7014 6.72905L42.1687 5.15894L44.636 3.36453L49.1221 1.57011L52.4866 0.448603L54.9539 0Z" fill="url(#paint0_linear_11483_10710)"/>
<path d="M85.459 44.1875H91.7395L95.5526 44.8604L99.3657 46.8791L102.282 48.6735L102.955 49.795L105.198 51.1409L106.543 53.6082L108.113 55.4026L109.235 57.4213L110.357 62.8045L110.581 64.1504V68.1878L109.459 73.7953L108.786 75.814L106.768 78.5057L104.525 81.6459L102.282 83.4403L99.59 85.459L98.9171 86.1319L91.5152 88.1506H85.459L78.9543 86.3562L76.9356 85.0104L75.3654 83.6646L73.7953 82.7674L71.1037 79.6272L69.5336 77.1599L68.1878 75.1411L67.2906 72.6738L66.842 69.9822L66.6177 67.2906V65.0476L67.0663 60.5615L67.7392 57.6456L69.3093 55.1783L70.2065 54.0568L70.8794 52.9353L71.328 51.8138L73.571 50.0193L74.4682 48.6735L77.8328 46.8791L80.7487 45.0847L83.6646 44.4118L85.459 44.1875Z" fill="white"/>
<path d="M58.7669 29.832H61.4585L64.3745 30.2806L68.6362 31.6264L70.6549 32.2994L72.8979 33.8695L75.3653 35.6639L77.1597 37.6826L79.1784 40.5985L79.4027 41.72L76.9354 42.6172L74.9167 43.963L72.225 45.5332L70.2063 48.0005L68.6362 48.8977L66.6175 52.0379L65.2717 54.0566L63.0287 61.01L62.3558 65.2717L62.5801 69.3091L63.253 72.2251V73.5709L61.9072 73.7952H58.3183L52.7108 72.898L51.1407 72.2251L48.0004 70.4306L45.9817 69.0848L43.7387 66.6175L42.6172 65.496L39.7013 60.3371L38.8041 58.3184L38.3555 55.6267V48.2248L39.0284 44.8602L40.1499 42.6172L41.4957 40.8228L42.6172 38.3555H43.0658L43.2901 37.6826L44.4116 36.5611L45.5331 34.991L48.0004 33.6452L49.7949 32.2994L52.2622 31.4021L56.0753 30.2806L58.7669 29.832Z" fill="white"/>
<path d="M81.1973 101.609L82.3188 102.058L83.4403 103.404L84.3375 105.198L85.6833 106.993L86.8048 109.46L87.702 113.946L87.9263 115.516V118.208L87.2534 122.918L86.5805 125.61L85.6833 127.404L84.3375 128.974L83.216 131.217L80.5244 133.685L77.6085 135.703L76.487 136.825L74.9168 137.498L69.9822 138.843L68.4121 139.068H63.2531L60.7858 138.619L56.0755 137.273L54.2811 135.928L52.9353 134.806L51.3652 133.909L49.795 132.114L48.6735 131.217L47.1034 128.526L45.7576 126.731L44.8604 124.488L44.1875 120.226V118.656L46.4305 117.759L48.4492 116.862L49.5707 115.74L51.1409 114.843L53.8325 112.376L56.5241 109.011L57.4213 108.787L59.2157 109.011H66.842L70.6551 108.338L73.3467 107.217L75.1411 106.095L78.2814 104.525L80.0758 102.731L81.1973 101.609Z" fill="white"/>
<path d="M31.4024 72.6738H37.6828L38.58 72.8981L38.3557 75.1411L37.2342 79.6272L37.0099 81.4216V85.6833L37.9071 89.4965L39.2529 94.4311L40.8231 96.4498L42.6175 99.3657L44.8605 101.833L45.3091 102.057V102.506L46.2063 102.955L48.0007 104.525L51.5895 106.543L52.2624 107.216L52.0381 108.338L49.3465 111.254L43.9633 114.843L40.5988 115.74L37.4585 116.413H32.5239L26.9163 115.291L23.3275 113.497L22.4303 112.824V112.375L21.3088 111.927L19.963 111.029L18.8415 109.459L17.0471 108.338L15.2527 104.749L13.4582 101.384L12.7853 98.9171L12.561 97.5713V91.5152L13.0096 88.8236L13.9068 86.5805L15.477 83.8889L16.8228 81.1973L18.1686 79.6272L19.5144 78.5057L20.6359 77.1599L23.3275 75.5898L26.2434 73.7953L28.0379 73.1224L31.4024 72.6738Z" fill="white"/>
<path d="M99.1413 89.9453L100.711 90.1696L103.403 91.5154L107.665 93.7584L110.581 96.4501L112.151 98.4688L114.394 102.058L115.291 103.852L115.964 107.217L116.188 109.908V112.824L115.74 117.31L114.618 120.675L112.824 123.142L111.478 125.385L108.786 128.301L106.768 129.647L105.197 130.993L99.5899 133.011L96.0011 133.684H92.188L89.4963 133.236L87.4776 132.563L87.7019 131.665L89.0477 129.422L91.2908 123.142L91.9637 120.226V114.17L91.2908 111.03L89.9449 107.441L88.8234 104.301L86.1318 100.263V99.8146L85.0103 99.366L84.3374 98.4688L85.9075 96.0015L86.8047 94.207L87.4776 92.6369L87.9262 92.4126L92.8609 92.1883L96.4497 91.0668L99.1413 89.9453Z" fill="white"/>
<path d="M103.852 18.8418H107.665L111.478 19.2904L114.618 20.4119L118.207 22.4306L120.675 24.6736L122.02 25.7951L123.59 27.8139L124.712 29.6083L125.833 32.2999L126.955 34.7672L127.628 37.4588L127.852 39.029V42.3935L127.404 44.6365L125.609 44.4122L121.347 43.2907L118.207 42.8421H115.74L112.375 43.2907L106.095 44.8608L104.973 45.5337L100.936 43.2907L98.6929 41.9449L95.1041 41.0477L92.1882 40.3748L87.7022 40.1505L83.4404 40.3748L83.6647 35.8887L84.3376 33.87L87.4779 27.5896H87.9265L88.3751 26.6924L90.8424 24.0007L93.534 21.982L96.0013 20.6362L98.02 19.739L100.936 19.0661L103.852 18.8418Z" fill="white"/>
<path d="M43.5145 72.6738L44.4117 72.8981L48.2248 75.1411L48.8977 75.8141L51.8137 76.7113L55.6268 77.6085L58.767 78.0571H62.1315L64.5989 77.6085L66.6176 79.8515L67.7391 82.3188L70.4307 84.7861L71.7765 86.3562L73.1223 87.2534L74.0195 87.9263V88.375L76.0382 89.0479L79.6271 90.618L81.6458 91.5152L83.2159 92.1881L82.7673 93.3096L81.4215 95.3283L80.5243 95.7769L80.0757 97.1227L79.1785 98.6928L77.3841 99.8143L76.2626 101.16L72.6737 102.955L69.3092 104.525L66.3933 105.198H59.4399L56.7483 104.525L54.0567 103.179L49.7949 100.936L48.0005 99.1414L46.2061 97.5713L44.636 95.3283L43.5145 93.3096L42.393 91.5152L41.2715 85.9076V80.7487L42.393 74.9168L43.5145 72.6738Z" fill="white"/>
<path d="M24.8977 47.1035H26.9164L32.2996 47.7764L34.3183 48.4493V54.0569L35.2155 59.8887L36.1127 62.5803L38.1315 65.7206L39.4773 67.9636L39.7016 68.6365L37.4586 68.4122H32.0753L28.9351 69.0851L24.8977 70.4309L22.8789 70.8795L21.5331 72.001L18.3929 74.0197L16.8228 75.3655L15.2527 77.1599L13.234 79.1787L10.991 83.4404L10.0937 83.889L7.85073 81.4217L6.05631 78.2815L4.4862 73.5711L4.0376 71.1038V66.8421L4.9348 63.0289L6.72922 57.6457L8.97224 55.4027L10.5423 53.384L13.0097 50.9166L15.7013 49.5708L17.4957 48.4493L21.5331 47.5521L24.8977 47.1035Z" fill="white"/>
<path d="M80.9731 4.48633H84.7862L88.5994 5.15923L92.6368 6.28074L97.1228 9.64527L99.1416 11.2154L100.936 13.6827L101.385 14.3556V15.0285L96.0013 16.15L93.7583 17.2715L91.7396 18.8416L89.7209 19.7388L88.5994 20.8604L87.0293 22.2062L85.0105 24.6735L83.6647 26.2436L82.5432 28.4866L81.8703 29.6081L80.3002 32.7483L80.0759 34.0942H79.403L77.8329 32.524L74.6927 30.281L72.6739 28.7109L68.1879 27.1408L66.6178 26.4679L64.3748 26.0193L61.2346 25.795L61.0103 25.5707V22.2062L61.6832 19.5145L64.3748 14.5799L65.272 12.5612L66.6178 11.664L68.1879 9.64527L70.6552 8.29946L72.2253 6.95365L74.2441 5.83214L79.1787 4.71063L80.9731 4.48633Z" fill="white"/>
<path d="M114.843 69.9824L118.207 70.6553L121.123 71.7768L124.039 73.5712L127.852 77.1601L130.095 79.8517L131.441 82.0947L132.338 85.2349L133.235 89.2724V93.9827L132.114 99.1416L131.217 101.609L128.974 104.749L126.731 107.665L124.039 109.684L121.123 111.703L120.674 111.478L119.777 106.768L118.207 101.16L117.534 99.3659L116.188 97.5715L115.291 95.7771L113.272 93.5341L111.478 91.964L109.235 89.721L106.543 88.5995L104.749 87.2537V86.8051L106.095 85.6835L107.665 83.8891L108.786 82.9919L110.581 79.8517L111.478 78.9545L113.721 72.8983L114.618 70.2067L114.843 69.9824Z" fill="white"/>
<path d="M116.413 47.1035L121.572 47.5521L124.712 48.225L127.852 49.7951L130.992 51.5895L133.011 54.0569L134.132 54.9541L136.6 58.9915L137.946 61.4588L138.618 65.272L138.843 67.7393V69.9823L138.17 75.5898L137.273 78.0572L135.703 80.5245L134.805 80.3002L133.235 77.3842L130.544 73.7954L128.301 72.001L127.852 71.1038L126.73 70.6552L124.936 69.5337L122.917 68.1879L121.347 67.2907L115.515 65.9449L115.067 65.4963L114.17 60.5616L112.824 56.9728L111.478 53.6083L109.908 50.9166L108.562 49.1222V48.4493L109.684 48.0007L113.721 47.3278L116.413 47.1035Z" fill="white"/>
<path d="M55.6268 4.48633H58.9913L62.8044 5.15923L65.7204 5.83214L65.2718 6.95365L63.7017 9.19666L62.3558 9.86957L60.1128 13.907L58.3184 16.8229L57.6455 19.2902L56.9726 24.8978L56.7483 25.795L53.3838 26.6922L47.5519 28.9352L45.5332 30.281L43.9631 31.6268L42.6173 32.524L41.7201 33.8699L40.15 34.9914H39.7014V35.44H39.2528L38.8042 37.4587L37.907 36.5615L36.1125 32.9726L35.4396 31.1782L35.2153 29.8324V22.8791L35.8882 20.6361L37.907 16.15L39.2528 13.4584L41.9444 10.7668L42.8416 9.64527L44.8603 8.29946L45.9818 7.40225L49.5706 5.60784L53.8324 4.71063L55.6268 4.48633Z" fill="white"/>
<path d="M30.9537 19.5137H32.0752L31.8509 22.2053L31.6266 23.9997V29.1586L32.5238 34.5419L33.421 37.2335L34.5425 39.0279L35.4397 41.2709L35.2154 43.9626L34.5425 44.1869L29.3836 43.0654L27.3649 42.8411H24.6732L20.8601 43.514L16.5984 44.6355H15.9255L15.7012 43.7383V37.9064L16.1498 34.3176L16.8227 32.5232L18.8414 28.9343L20.6358 26.2427L22.6545 24.4483L23.776 23.1025L26.9163 21.3081L30.0565 19.738L30.9537 19.5137Z" fill="white"/>
<path d="M23.7761 118.207L24.8976 118.431L27.5892 119.553L30.9537 120.45L32.0752 120.674H37.4585L39.7015 120.45L42.8417 129.871L43.066 130.992L40.3744 130.768L38.1314 130.319L35.4397 129.422L33.421 128.301L31.4023 127.403L29.6079 126.058L27.5892 124.263L26.4677 123.366L25.1219 121.123V120.674H24.6733L23.5518 118.431L23.7761 118.207Z" fill="white"/>
</g>
<g clip-path="url(#clip1_11483_10710)">
<path fill-rule="evenodd" clip-rule="evenodd" d="M336.617 154.063C332.49 154.063 328.873 150.6 328.873 145.184V145.095C328.873 139.545 332.362 136.26 336.617 136.26C340.701 136.26 344.573 139.812 344.573 145.095V145.184C344.573 150.467 340.701 154.063 336.617 154.063ZM354.975 143.849C355.405 139.317 358.329 135.951 362.199 135.951C366.629 135.951 368.951 139.631 369.295 143.849H354.975ZM362.845 157.518C367.06 157.518 369.769 155.767 372.006 153.164L369.941 151.235C368.135 153.209 365.985 154.511 362.931 154.511C358.975 154.511 355.577 151.684 355.105 146.658H372.737C372.78 146.254 372.78 145.985 372.78 145.536C372.78 138.759 368.995 133.285 362.416 133.285C356.266 133.285 351.75 138.67 351.75 145.356V145.446C351.75 152.626 356.739 157.518 362.845 157.518ZM382.448 156.956H385.375L395.061 133.552H391.488L383.954 152.823L376.464 133.552H372.805L382.448 156.956ZM404.394 157.212C408.824 157.212 412.308 154.653 412.308 150.254V150.227C412.308 146.005 408.566 144.598 405.086 143.508C402.084 142.555 399.299 141.692 399.299 139.468V139.4C399.299 137.497 400.954 136.08 403.542 136.08C405.664 136.08 407.997 136.921 410.034 138.294L411.519 135.725C409.27 134.176 406.3 133.202 403.627 133.202C399.299 133.202 396.159 135.814 396.159 139.755V139.844C396.159 144.143 400.062 145.41 403.574 146.451C406.523 147.31 409.168 148.216 409.168 150.568V150.614C409.168 152.858 407.232 154.294 404.566 154.294C401.942 154.294 399.276 153.217 396.867 151.332L395.19 153.8C397.684 155.909 401.211 157.212 404.394 157.212ZM335.991 157.132C340.108 157.132 342.753 154.754 344.573 151.972V156.488H347.713V127.467H344.573V137.881C342.839 135.278 340.152 132.944 335.991 132.944C330.616 132.944 325.284 137.432 325.284 145.016V145.106C325.284 152.735 330.616 157.132 335.991 157.132Z" fill="url(#paint1_linear_11483_10710)"/>
<path fill-rule="evenodd" clip-rule="evenodd" d="M271.385 157.314C269.665 157.314 268.066 157.015 266.59 156.417C265.113 155.818 263.838 154.966 262.762 153.859C261.687 152.752 260.848 151.443 260.246 149.932C259.644 148.421 259.343 146.738 259.343 144.884V144.794C259.343 143.089 259.623 141.473 260.182 139.947C260.741 138.421 261.523 137.09 262.526 135.954C263.529 134.817 264.726 133.919 266.117 133.261C267.508 132.603 269.048 132.274 270.74 132.274C272.661 132.274 274.324 132.632 275.729 133.351C277.134 134.068 278.302 135.033 279.234 136.245C280.165 137.457 280.854 138.848 281.298 140.419C281.742 141.989 281.965 143.627 281.965 145.332C281.965 145.602 281.958 145.886 281.943 146.185C281.928 146.484 281.907 146.798 281.879 147.128H265.837C266.153 148.683 266.805 149.857 267.794 150.65C268.783 151.443 270.009 151.839 271.471 151.839C272.56 151.839 273.535 151.645 274.395 151.256C275.256 150.867 276.144 150.239 277.062 149.371L280.803 152.826C279.714 154.233 278.394 155.332 276.846 156.125C275.298 156.918 273.478 157.314 271.385 157.314ZM275.393 142.915C275.193 141.389 274.677 140.155 273.845 139.213C273.013 138.27 271.91 137.799 270.534 137.799C269.157 137.799 268.046 138.263 267.201 139.191C266.355 140.118 265.803 141.359 265.545 142.915H275.393ZM284.015 132.617H290.744V137.367C291.387 135.754 292.268 134.465 293.388 133.497C294.507 132.529 296.019 132.089 297.921 132.178V139.17H297.585C295.459 139.17 293.786 139.844 292.569 141.193C291.352 142.542 290.744 144.638 290.744 147.482V156.489H284.015V132.617ZM311.335 157.391C309.545 157.391 307.885 157.067 306.354 156.419C304.824 155.771 303.503 154.882 302.391 153.752C301.279 152.623 300.406 151.297 299.771 149.776C299.136 148.254 298.818 146.619 298.818 144.872V144.782C298.818 143.034 299.136 141.399 299.771 139.878C300.406 138.356 301.287 137.023 302.413 135.879C303.539 134.734 304.867 133.829 306.398 133.166C307.928 132.504 309.602 132.172 311.422 132.172C313.212 132.172 314.872 132.496 316.402 133.144C317.932 133.792 319.254 134.681 320.366 135.811C321.477 136.94 322.35 138.266 322.985 139.787C323.621 141.309 323.938 142.944 323.938 144.691V144.782C323.938 146.529 323.621 148.164 322.985 149.685C322.35 151.207 321.47 152.54 320.344 153.685C319.218 154.83 317.889 155.734 316.359 156.396C314.829 157.059 313.154 157.391 311.335 157.391ZM311.197 151.462C312.149 151.462 312.992 151.289 313.727 150.943C314.463 150.596 315.09 150.123 315.609 149.521C316.128 148.919 316.525 148.22 316.798 147.422C317.073 146.624 317.21 145.775 317.21 144.872V144.782C317.21 143.879 317.066 143.029 316.777 142.231C316.489 141.434 316.07 140.727 315.523 140.11C314.975 139.493 314.326 139.004 313.576 138.643C312.826 138.282 312.005 138.101 311.11 138.101C310.159 138.101 309.315 138.274 308.581 138.62C307.845 138.967 307.218 139.44 306.699 140.042C306.18 140.644 305.783 141.344 305.509 142.141C305.235 142.939 305.098 143.788 305.098 144.691V144.782C305.098 145.684 305.242 146.534 305.531 147.332C305.819 148.129 306.238 148.836 306.785 149.453C307.333 150.07 307.974 150.559 308.71 150.92C309.445 151.281 310.274 151.462 311.197 151.462ZM242.297 127.468V136.345C242.676 135.828 243.091 135.342 243.542 134.871C243.994 134.407 244.495 133.996 245.049 133.629C245.601 133.27 246.213 132.986 246.882 132.769C247.552 132.56 248.309 132.455 249.153 132.455C251.686 132.455 253.643 133.248 255.026 134.834C256.409 136.419 257.101 138.603 257.101 141.386V156.957H250.372V143.569C250.372 141.961 250.026 140.742 249.336 139.927C248.645 139.104 247.667 138.693 246.399 138.693C245.133 138.693 244.133 139.104 243.399 139.927C242.664 140.742 242.297 141.961 242.297 143.569V156.489H235.569V127.468H242.297Z" fill="#0D0D0D"/>
</g>
<path d="M174.875 125.598H179.65V137.426C181.27 135.076 183.886 133.802 186.793 133.802C192.98 133.802 196.925 139.019 196.925 144.714C196.925 150.409 192.98 155.826 186.544 155.826C183.595 155.826 181.021 154.591 179.443 152.162L179.235 155.228H174.875V125.598ZM185.796 137.944C181.851 137.944 179.567 141.21 179.567 144.794C179.567 148.259 181.851 151.684 185.796 151.684C189.741 151.684 192.025 148.338 192.025 144.794C192.025 141.249 189.824 137.944 185.796 137.944ZM197.64 134.399H202.872L208.727 149.971L214.042 134.399H219.109L209.89 157.737C208.561 161.043 206.485 163.512 202.54 163.512C201.253 163.512 200.048 163.273 198.886 162.676L199.924 159.052C200.214 159.171 200.588 159.291 200.962 159.41C201.336 159.49 201.709 159.53 202.083 159.53C204.076 159.53 205.114 158.335 205.82 156.662L206.485 155.029L197.64 134.399Z" fill="#0D0D0D"/>
<defs>
<linearGradient id="paint0_linear_11483_10710" x1="-5.04715e-08" y1="66.2553" x2="143.127" y2="66.9327" gradientUnits="userSpaceOnUse">
<stop stop-color="#F926E1"/>
<stop offset="1" stop-color="#2AB5FB"/>
</linearGradient>
<linearGradient id="paint1_linear_11483_10710" x1="325.284" y1="143.648" x2="412.308" y2="142.451" gradientUnits="userSpaceOnUse">
<stop stop-color="#F926E1"/>
<stop offset="1" stop-color="#2AB5FB"/>
</linearGradient>
<clipPath id="clip0_11483_10710">
<rect width="414.999" height="143.553" fill="white"/>
</clipPath>
<clipPath id="clip1_11483_10710">
<rect width="179.041" height="58.9781" fill="white" transform="translate(235.959 112.955)"/>
</clipPath>
</defs>
</svg>
